# xmcd
#
# Track frame offsets: 
#        150
#        20974
#        44386
#        75038
#        97095
#        128041
#        149486
#        171398
#
# Disc length: 2894 seconds
#
# Revision: 0
# Processed by: cddbd v1.5.2PL0 Copyright (c) Steve Scherf et al.
# Submitted via: ExactAudioCopy v1.0b1
#
DISCID=6a0b4c08
DTITLE=Zodiac - A Bit Of Devil
DYEAR=2012
DGENRE=Rock
TTITLE0=A Bit Of Devil
TTITLE1=Carnival
TTITLE2=Blue Jean Blues
TTITLE3=Horror Vision
TTITLE4=Assembly Line
TTITLE5=Thunder
TTITLE6=Diamond Shoes
TTITLE7=Coming Home
EXTD=
EXTT0=
EXTT1=
EXTT2=
EXTT3=
EXTT4=
EXTT5=
EXTT6=
EXTT7=
PLAYORDER=
